<svg version="1.1" xmlns="http://www.w3.org/2000/svg" style="display: block;" viewBox="0 0 2048 2048" width="1024" height="1024" preserveAspectRatio="none">
<defs>
	<linearGradient id="Gradient1" gradientUnits="userSpaceOnUse" x1="483.067" y1="1280.92" x2="485.503" y2="817.607">
		<stop class="stop0" offset="0" stop-opacity="1" stop-color="rgb(62,52,159)"/>
		<stop class="stop1" offset="1" stop-opacity="1" stop-color="rgb(71,106,185)"/>
	</linearGradient>
	<linearGradient id="Gradient2" gradientUnits="userSpaceOnUse" x1="540.874" y1="991.326" x2="562.354" y2="1066.48">
		<stop class="stop0" offset="0" stop-opacity="1" stop-color="rgb(85,119,207)"/>
		<stop class="stop1" offset="1" stop-opacity="1" stop-color="rgb(95,159,230)"/>
	</linearGradient>
	<linearGradient id="Gradient3" gradientUnits="userSpaceOnUse" x1="609.922" y1="888.715" x2="632.74" y2="1027.76">
		<stop class="stop0" offset="0" stop-opacity="1" stop-color="rgb(71,76,181)"/>
		<stop class="stop1" offset="1" stop-opacity="1" stop-color="rgb(91,135,220)"/>
	</linearGradient>
	<linearGradient id="Gradient4" gradientUnits="userSpaceOnUse" x1="568.665" y1="1035.29" x2="590.946" y2="1145.19">
		<stop class="stop0" offset="0" stop-opacity="1" stop-color="rgb(88,130,219)"/>
		<stop class="stop1" offset="1" stop-opacity="1" stop-color="rgb(102,209,246)"/>
	</linearGradient>
	<linearGradient id="Gradient5" gradientUnits="userSpaceOnUse" x1="478.408" y1="900.372" x2="549.928" y2="1080.74">
		<stop class="stop0" offset="0" stop-opacity="1" stop-color="rgb(59,54,158)"/>
		<stop class="stop1" offset="1" stop-opacity="1" stop-color="rgb(78,110,200)"/>
	</linearGradient>
</defs>
<path transform="translate(0,0)" fill="rgb(255,255,255)" d="M 0 0 L 2048 0 L 2048 2048 L 0 2048 L 0 0 z"/>
<path transform="translate(0,0)" fill="rgb(255,255,255)" d="M 462.62 1120.51 C 413.044 1077.93 400.574 1006.2 432.872 949.391 C 465.171 892.581 533.186 866.61 595.128 887.436 C 656.72 908.144 695.194 969.38 687.123 1033.86 C 680.876 1083.76 647.704 1126.2 600.78 1144.31 C 553.857 1162.42 500.777 1153.27 462.62 1120.51 z"/>
<path transform="translate(0,0)" fill="url(#Gradient5)" d="M 462.62 1120.51 C 413.044 1077.93 400.574 1006.2 432.872 949.391 C 465.171 892.581 533.186 866.61 595.128 887.436 C 593.093 909.142 586.62 922.529 572.59 939.426 C 569.934 942.624 561.898 951.559 560.177 954.446 C 531.154 949.586 513.174 962.338 500.801 987.642 C 461.939 991.257 446.94 1031.39 472.264 1057.84 C 459.228 1090.06 464.794 1089.46 462.62 1120.51 z"/>
<path transform="translate(0,0)" fill="rgb(255,255,255)" d="M 510.118 911.627 C 513.704 915.144 514.729 923.207 519.303 925.571 C 521.809 926.866 529.622 928.36 532.526 928.99 L 517.062 934.379 C 514.614 938.878 513.464 942.611 511.769 947.407 L 510.997 947.503 C 508.697 945.638 507.026 938.424 506.008 935.15 C 501.434 933.101 496.241 931.181 491.54 929.321 C 496.152 927.875 500.75 926.386 505.334 924.854 C 507.068 920.773 508.634 915.87 510.118 911.627 z"/>
<path transform="translate(0,0)" fill="rgb(255,255,255)" d="M 574.532 904.957 C 576.393 906.674 577.387 907.686 579.067 909.58 C 578.686 912.79 577.415 912.908 574.422 915.826 C 571.717 913.721 571.736 913.805 569.745 911.043 C 570.479 907.417 570.981 908.062 574.532 904.957 z"/>
<path transform="translate(0,0)" fill="rgb(255,255,255)" d="M 477.947 958.497 C 480.152 957.762 482.548 958.868 483.42 961.023 C 484.292 963.177 483.338 965.638 481.242 966.643 C 479.764 967.352 478.015 967.181 476.703 966.2 C 475.39 965.219 474.731 963.589 474.992 961.972 C 475.254 960.354 476.392 959.015 477.947 958.497 z"/>
<path transform="translate(0,0)" fill="url(#Gradient4)" d="M 640.984 1030.73 C 642.318 1028.25 642.183 1026.57 642.283 1023.85 C 648.907 1014.24 673.907 1022.02 685.531 1018.36 C 688.101 1020.79 685.263 1028.48 687.123 1033.86 C 680.876 1083.76 647.704 1126.2 600.78 1144.31 C 553.857 1162.42 500.777 1153.27 462.62 1120.51 C 464.794 1089.46 459.228 1090.06 472.264 1057.84 C 476.936 1061.69 485.575 1068.11 491.591 1068.69 C 522.655 1071.65 556.035 1069.27 587.117 1069.8 C 617.301 1070.31 635.046 1062.54 640.984 1030.73 z"/>
<path transform="translate(0,0)" fill="url(#Gradient3)" d="M 595.128 887.436 C 656.72 908.144 695.194 969.38 687.123 1033.86 C 685.263 1028.48 688.101 1020.79 685.531 1018.36 C 673.907 1022.02 648.907 1014.24 642.283 1023.85 C 642.183 1026.57 642.318 1028.25 640.984 1030.73 L 640.893 1029.51 L 640.71 1027.49 C 638.572 1002.62 623.238 987.874 598.252 987.611 C 596.961 984.983 595.598 982.391 594.166 979.838 C 586.099 965.488 575.423 958.701 560.177 954.446 C 561.898 951.559 569.934 942.624 572.59 939.426 C 586.62 922.529 593.093 909.142 595.128 887.436 z"/>
<path transform="translate(0,0)" fill="rgb(255,255,255)" d="M 616.259 919.77 C 617.842 921.551 620.108 927.577 621.657 930.497 C 624.533 935.92 632.908 936.691 639.274 938.24 C 623.318 943.032 622.818 942.003 616.842 957.47 C 613.539 954.485 613.18 947.734 609.887 944.502 C 606.655 941.329 599.058 939.409 594.849 938.017 C 611.156 933.925 609.805 934.76 616.259 919.77 z"/>
<path transform="translate(0,0)" fill="rgb(255,255,255)" d="M 640.069 973.375 C 642.371 972.436 645.002 973.506 645.995 975.785 C 646.988 978.064 645.98 980.719 643.726 981.766 C 642.219 982.465 640.451 982.294 639.107 981.317 C 637.763 980.34 637.054 978.712 637.253 977.063 C 637.453 975.414 638.531 974.002 640.069 973.375 z"/>
<path transform="translate(0,0)" fill="url(#Gradient2)" d="M 510.859 1000.06 C 512.941 991.924 514.522 986.292 520.05 979.493 C 526.258 971.784 535.344 966.942 545.205 966.087 C 559.134 964.799 567.649 969.985 577.695 978.218 C 583.913 986.492 585.285 990.76 588.44 1000.67 C 607.394 998.843 625.454 1002.76 627.621 1025.55 C 628.423 1033.5 625.915 1041.43 620.687 1047.47 C 614.523 1054.63 606.711 1056.98 597.633 1057.11 C 578.569 1057.38 558.511 1057.55 539.534 1057.52 C 530.604 1057.51 503.112 1058.16 496.016 1056.6 C 490.901 1055.5 486.18 1053.03 482.351 1049.47 C 480.784 1048.01 479.725 1046.94 478.466 1045.23 C 467.116 1026.66 473.548 1006.82 495.321 1000.62 C 499.684 999.377 506.214 999.901 510.859 1000.06 z"/>
<path transform="translate(0,0)" fill="rgb(74,96,187)" d="M 510.859 1000.06 C 512.941 991.924 514.522 986.292 520.05 979.493 C 526.258 971.784 535.344 966.942 545.205 966.087 C 559.134 964.799 567.649 969.985 577.695 978.218 C 573.817 982.047 564.415 989.07 562.544 991.357 C 560.829 990.909 559.014 991.544 557.952 992.963 C 536.696 995.752 509.712 1009.72 495.033 1025.64 C 491.395 1029.59 481.221 1042.9 478.466 1045.23 C 467.116 1026.66 473.548 1006.82 495.321 1000.62 C 499.684 999.377 506.214 999.901 510.859 1000.06 z"/>
<path transform="translate(0,0)" fill="rgb(255,255,255)" d="M 557.952 992.963 C 559.014 991.544 560.829 990.909 562.544 991.357 C 564.4 991.841 565.721 993.482 565.798 995.398 C 565.876 997.314 564.692 999.057 562.882 999.69 C 561.072 1000.32 559.06 999.699 557.926 998.152 C 556.792 996.605 556.803 994.499 557.952 992.963 z"/>
<path transform="translate(0,0)" fill="rgb(255,255,255)" d="M 578.977 1014.52 C 581 1019.52 583.907 1023.93 588.814 1026.53 L 587.416 1026.36 C 583.539 1028.53 580.582 1033.47 578.944 1037.5 C 576.867 1032.3 575.276 1031.02 571.35 1027.23 L 570.078 1026.02 C 575.702 1022.36 576.64 1020.78 578.977 1014.52 z"/>
<path transform="translate(0,0)" fill="rgb(255,255,255)" d="M 525.373 1008.73 C 528.328 1010.28 530.708 1011.38 531.774 1014.53 C 531.084 1018.58 530.836 1017.79 527.906 1021.49 C 524.667 1020.42 522.623 1018.88 521.655 1015.49 C 522.35 1010.89 521.777 1012.56 525.373 1008.73 z"/>
<path transform="translate(0,0)" fill="url(#Gradient1)" d="M 376.642 810.571 C 380.596 806.426 386.884 801.554 391.539 798.18 C 432.906 768.052 481.905 750.15 532.952 746.513 C 542.911 745.833 558.374 745.352 568.216 746.95 L 567.001 747.049 C 559.077 747.651 549.251 746.715 542.449 748.323 L 541.881 749.093 C 543.422 750.98 544.92 751.936 544.441 753.685 C 540.856 766.804 527.004 776.867 527.611 791.448 L 529.733 792.381 C 514.821 795.12 504.859 795.699 489.123 799.891 C 438.959 813.375 395.215 844.239 365.694 886.98 C 337.482 927.609 323.069 972.373 323.661 1021.78 C 326.023 1083.35 349.803 1140.41 395.456 1182.52 C 440.216 1224.14 499.745 1246.16 560.814 1243.68 C 613.043 1241.42 650.948 1225.44 692.69 1195.42 C 698.674 1189.55 705.713 1184.56 711.65 1178.76 C 726.134 1164.62 736.756 1149.85 747.293 1132.84 C 762.532 1132.77 781.742 1132.14 796.665 1132.84 C 768.832 1195.55 711.785 1247.01 648.021 1271.32 C 598.236 1290.3 551.879 1292.98 500.054 1283.42 C 439.356 1272.04 384.418 1240.13 344.46 1193.05 C 297.61 1137.75 274.97 1065.93 281.637 993.764 C 287.611 922.474 321.813 856.524 376.642 810.571 z"/>
<path transform="translate(0,0)" fill="rgb(93,155,226)" d="M 376.642 810.571 C 380.596 806.426 386.884 801.554 391.539 798.18 C 432.906 768.052 481.905 750.15 532.952 746.513 C 542.911 745.833 558.374 745.352 568.216 746.95 L 567.001 747.049 C 559.077 747.651 549.251 746.715 542.449 748.323 L 541.881 749.093 C 543.422 750.98 544.92 751.936 544.441 753.685 C 540.856 766.804 527.004 776.867 527.611 791.448 L 529.733 792.381 C 514.821 795.12 504.859 795.699 489.123 799.891 C 438.959 813.375 395.215 844.239 365.694 886.98 C 337.482 927.609 323.069 972.373 323.661 1021.78 C 321.815 1018.22 323.472 1001.66 322.793 994.941 C 317.301 940.555 331.756 884.889 359.104 837.903 C 362.295 832.421 376.091 814.34 376.642 810.571 z"/>
<path transform="translate(0,0)" fill="rgb(93,155,226)" d="M 747.293 1132.84 C 762.532 1132.77 781.742 1132.14 796.665 1132.84 C 768.832 1195.55 711.785 1247.01 648.021 1271.32 C 598.236 1290.3 551.879 1292.98 500.054 1283.42 C 557.755 1283.04 617.886 1262.46 663.492 1226.63 C 669.045 1222.27 692.046 1201.71 692.69 1195.42 C 698.674 1189.55 705.713 1184.56 711.65 1178.76 C 726.134 1164.62 736.756 1149.85 747.293 1132.84 z"/>
<path transform="translate(0,0)" fill="rgb(67,71,170)" d="M 568.216 746.95 C 665.715 750.25 753.692 814.516 796.8 900.302 L 746.376 900.344 C 714.217 847.99 662.33 810.792 602.423 797.145 C 576.764 791.226 555.708 790.366 529.733 792.381 L 527.611 791.448 C 527.004 776.867 540.856 766.804 544.441 753.685 C 544.92 751.936 543.422 750.98 541.881 749.093 L 542.449 748.323 C 549.251 746.715 559.077 747.651 567.001 747.049 L 568.216 746.95 z"/>
<path transform="translate(0,0)" fill="rgb(28,46,115)" d="M 815.425 951.416 C 843.919 952.098 885.413 945.751 906.828 967.871 C 926.374 988.06 925.908 1021.68 906.2 1042.02 C 882.896 1062.68 846.01 1057.11 815.205 1057.11 C 815.959 1022.2 815.207 986.443 815.425 951.416 z"/>
<path transform="translate(0,0)" fill="rgb(255,255,255)" d="M 840.498 972.142 C 863.599 971.903 893.232 969.918 895.855 1001.28 C 896.796 1012.53 894.431 1019.32 887.31 1027.95 C 873.129 1039.17 857.976 1037.03 840.558 1036.89 C 840.419 1015.3 840.399 993.723 840.498 972.142 z"/>
<path transform="translate(0,0)" fill="rgb(28,46,115)" d="M 402.674 983.86 C 403.498 985.124 400.194 1024.38 401.266 1032.5 C 404.135 1054.25 413.645 1071.99 419.241 1092.62 C 427.648 1123.63 433.98 1155.5 441.456 1186.77 C 431.354 1179.74 422.729 1173.45 413.5 1165.3 C 378.331 1134.68 358.427 1092.12 350.453 1046.84 C 368.345 1026.25 385.756 1005.25 402.674 983.86 z"/>
<path transform="translate(0,0)" fill="rgb(74,96,187)" d="M 434.855 1113.52 C 436.598 1114.69 441.933 1119.99 443.535 1121.63 C 456.865 1134.92 476.452 1149.07 494.548 1154.9 C 528.708 1165.89 558.449 1184.37 590.346 1200.41 C 596.104 1203.3 602.917 1206.38 608.331 1209.88 L 607.995 1211.32 L 604.732 1212.3 C 552.293 1226.14 501.264 1219.55 453.614 1194.21 C 446.854 1168.18 440.583 1139.86 434.855 1113.52 z"/>
<path transform="translate(0,0)" fill="rgb(28,46,115)" d="M 509.628 820.189 C 514.893 819.706 527.632 831.264 532.399 834.848 C 547.707 846.358 563.549 857.405 578.48 869.373 C 556.514 867.414 527.451 865.933 506.784 874.402 C 483.517 883.938 465.033 887.767 440.6 893.27 C 421.314 897.333 401.448 902.58 382.096 906.971 L 382.73 905.959 C 411.59 860.756 457.63 831.419 509.628 820.189 z"/>
<path transform="translate(0,0)" fill="rgb(28,46,115)" d="M 1225.45 976.122 C 1240.84 974.954 1248.33 975.815 1259.07 987.741 C 1271.71 975.436 1295.89 969.757 1309.16 983.882 C 1323.05 998.671 1318.81 1036.3 1318.53 1057.07 L 1294.51 1057.05 C 1294.6 1045.93 1296.49 1004.53 1290.69 1000.78 C 1260.16 981.072 1263.88 1030.15 1263.94 1037.5 L 1263.98 1057.09 L 1240.03 1057.03 C 1240.11 1047.26 1242.82 1004.96 1234.79 1000.12 C 1202.15 980.467 1209.12 1040.92 1209.29 1057.02 L 1185.31 1057.06 C 1185.7 1030.67 1185.3 1003.43 1185.22 976.979 C 1192.33 976.821 1199.71 976.521 1206.78 976.935 C 1209.67 978.742 1208.05 979.135 1209.31 984.219 C 1215.33 981.051 1218.66 977.933 1225.45 976.122 z"/>
<path transform="translate(0,0)" fill="rgb(93,155,226)" d="M 724.628 1117.02 L 726.406 1117.21 L 726.626 1118.31 C 700.982 1160.22 669.96 1188.27 623.683 1206.46 C 608.027 1198.1 591.542 1189.96 575.663 1181.95 C 566.178 1177.18 556.794 1172.21 547.516 1167.05 C 564.429 1166.12 588.206 1163.61 603.516 1157 C 642.679 1140.11 683.836 1129.88 724.628 1117.02 z"/>
<path transform="translate(0,0)" fill="rgb(74,96,187)" d="M 686.997 868.53 C 716.502 888.016 742.815 940.202 749.379 974.162 C 750.491 979.916 751.58 986.153 752.51 991.955 C 744.566 1002.3 731.121 1016.83 722.252 1027.05 C 714.288 1036 706.255 1044.89 698.155 1053.72 C 703.464 1032.15 704.268 1010.21 699.916 988.375 C 698.548 981.511 694.65 972.493 694.204 965.993 C 691.972 933.479 689.987 900.992 686.997 868.53 z"/>
<path transform="translate(0,0)" fill="rgb(28,46,115)" d="M 450.159 901.293 C 452.634 900.972 451.516 900.762 453.547 901.714 C 447.642 909.376 437.678 916.269 432.323 924.861 C 408.649 962.844 380.272 996.305 351.785 1030.84 C 350.886 1031.6 351.514 1031.2 349.673 1031.58 C 347.695 1026.62 348.712 1017.21 348.787 1011.69 C 349.244 977.786 359.89 948.574 374.583 918.543 C 398.606 912.521 425.973 905.999 450.159 901.293 z"/>
<path transform="translate(0,0)" fill="rgb(28,46,115)" d="M 1030.14 976.155 C 1031.36 976.043 1032.59 975.957 1033.81 975.896 C 1066.77 974.322 1079.28 993.868 1079.9 1024.21 C 1069.79 1024.22 1029.06 1023.82 1020.94 1025.48 C 1021.19 1034.51 1032.09 1038.22 1039.52 1038.64 C 1048.81 1039.16 1053.24 1037.87 1060.34 1032.14 L 1061.19 1031.44 L 1062.85 1032.69 L 1074.21 1044.37 C 1059.42 1060.22 1036.19 1063.18 1017.22 1053.27 C 1007.04 1048.02 999.545 1038.73 996.576 1027.66 C 989.44 1001.21 1005.04 982.279 1030.14 976.155 z"/>
<path transform="translate(0,0)" fill="rgb(255,255,255)" d="M 1032.08 995.101 C 1047.19 993.819 1051.57 996.888 1058.07 1010.14 L 1043.92 1010.27 L 1018.59 1010.28 C 1022.35 1001.3 1023.68 999.738 1032.08 995.101 z"/>
<path transform="translate(0,0)" fill="rgb(28,46,115)" d="M 1118.09 976.314 C 1175.46 969.677 1165.41 1017.56 1165.14 1056.95 L 1144.04 1056.92 L 1142.99 1055.73 C 1143.01 1053.07 1143.14 1052.37 1142.55 1049.81 C 1137.7 1050.41 1130.81 1057.47 1122.88 1058.52 C 1112.88 1059.84 1104.1 1056.94 1095.95 1051.26 C 1088.29 1042.07 1084.81 1030.48 1093.44 1020.54 C 1103.88 1008.5 1121.05 1011.38 1135.16 1009.82 C 1138.22 1009.48 1138.88 1008.93 1140.45 1006.65 C 1137.5 988.114 1110.77 997.032 1100.18 1002.56 C 1097.39 995.812 1095.17 991.691 1091.63 985.27 C 1102.65 979.523 1105.71 978.144 1118.09 976.314 z"/>
<path transform="translate(0,0)" fill="rgb(255,255,255)" d="M 1117.32 1025.11 C 1125.03 1024.7 1132.77 1023.46 1139.83 1026.12 C 1143.93 1031.14 1138.34 1035.78 1134.7 1039.52 C 1120.19 1045.33 1103.47 1037.75 1117.32 1025.11 z"/>
<path transform="translate(0,0)" fill="rgb(67,71,170)" d="M 602.345 822.826 C 632.972 831.073 651.244 840.717 676.697 859.131 C 678.606 887.003 680.771 914.857 683.193 942.689 C 667.49 919.884 654.35 904.628 629.738 890.123 C 621.578 885.314 608.195 878.937 600.954 873.788 C 613.68 848.5 602.604 844.19 602.345 822.826 z"/>
<path transform="translate(0,0)" fill="rgb(74,96,187)" d="M 752.697 1006.86 L 753.681 1008.11 C 757.179 1036.28 746.561 1078.8 733.954 1103.92 C 708.944 1112.6 680.486 1120.44 654.845 1128.6 L 654.129 1127.88 C 659.68 1121.56 668.058 1113.94 672.751 1107.43 C 679.983 1097.4 686.789 1082.26 694.726 1072.94 C 713.627 1050.76 733.466 1028.79 752.697 1006.86 z"/>
<path transform="translate(0,0)" fill="rgb(93,155,226)" d="M 1455.8 977.19 C 1456.78 977.103 1457.75 977.028 1458.72 976.964 C 1488.28 975.116 1500.39 995.636 1501.16 1022.26 L 1436.89 1022.92 C 1443.91 1043.58 1460.58 1050.07 1480.46 1041.37 C 1483.15 1039.64 1485.07 1038.02 1487.56 1036.04 C 1490.33 1038.96 1493.1 1042.03 1495.84 1045 C 1490.09 1050.72 1485.23 1054.04 1477.31 1056.46 C 1466.3 1059.82 1454.41 1058.69 1444.23 1053.33 C 1434.59 1048.25 1427.42 1039.47 1424.38 1029 C 1416.89 1003.42 1430.83 983.402 1455.8 977.19 z"/>
<path transform="translate(0,0)" fill="rgb(255,255,255)" d="M 1459.8 989.208 C 1477.22 988.261 1483.11 997.827 1488.42 1012.26 L 1463.73 1012.36 C 1454.62 1012.55 1445.5 1012.53 1436.39 1012.31 C 1440.88 998.323 1445.13 992.249 1459.8 989.208 z"/>
<path transform="translate(0,0)" fill="rgb(93,155,226)" d="M 1527.88 977.304 C 1529.43 977.421 1530.31 977.717 1531.82 978.076 C 1533.46 980.211 1533.2 982.196 1533.39 985.015 L 1533.47 986.334 C 1534.91 987.322 1534.5 987.343 1535.52 986.414 C 1551.52 971.633 1585.17 971.822 1591.55 996.076 C 1595.85 1012.43 1594.03 1039.74 1593.98 1056.92 L 1579.27 1056.91 L 1578.98 1006.97 C 1577.2 999.396 1576.13 998.321 1570.68 992.522 C 1525.82 976.966 1533.76 1030.51 1534.04 1057.15 L 1519.64 1057.05 C 1519.36 1038.55 1518.02 995.619 1519.79 978.954 C 1521.83 977.169 1524.95 977.479 1527.88 977.304 z"/>
<path transform="translate(0,0)" fill="rgb(93,155,226)" d="M 1634.89 977.153 C 1650.44 975.661 1659.87 977.212 1674.01 983.326 C 1671.54 987.55 1670.13 990.721 1668.12 995.131 C 1658.72 990.314 1648.47 987.059 1638.09 989.318 C 1623.36 992.904 1620.4 1007.48 1637.46 1011.06 C 1649.23 1013.53 1673.46 1014.1 1675.22 1029.32 C 1677.57 1049.59 1663.92 1055.32 1647.02 1057.67 C 1632.34 1058.95 1621.38 1055.09 1608.82 1048.36 C 1610.98 1044.78 1613.02 1040.84 1615.03 1037.15 C 1624.62 1042.21 1634.01 1045.66 1645.03 1045.26 C 1652.13 1045 1662.5 1042.36 1661.49 1033.23 C 1658.7 1027.32 1646.73 1024.27 1640.87 1023.94 C 1605.24 1021.88 1599.09 987.103 1634.89 977.153 z"/>
<path transform="translate(0,0)" fill="rgb(28,46,115)" d="M 1739.5 993.315 C 1768.45 992.64 1770.67 1009.69 1769.42 1033.69 C 1769.18 1038.39 1770.29 1053.63 1768.47 1057.09 C 1765.15 1057.77 1764.93 1057.56 1761.67 1057.1 C 1758.45 1054.7 1759.64 1056.22 1758.26 1052.16 C 1752.13 1052.41 1740.87 1061.26 1730.73 1058.16 C 1723.27 1055.89 1719.29 1052.54 1715.32 1046.1 C 1708.46 1012 1743.79 1025.28 1755.83 1020.13 C 1766.68 1006.67 1738.77 997.322 1722.05 1010.92 C 1719.91 1007.57 1717.78 1003.94 1715.7 1000.52 C 1725.27 995.931 1729.04 994.552 1739.5 993.315 z"/>
<path transform="translate(0,0)" fill="rgb(255,255,255)" d="M 1741.59 1029.47 L 1745.51 1029.38 C 1751.54 1029.19 1754.09 1028.23 1757.96 1033.47 C 1759.38 1042.15 1749.79 1046.94 1742.82 1049.13 C 1721.65 1049.09 1718.81 1030.69 1741.59 1029.47 z"/>
<path transform="translate(0,0)" fill="rgb(28,46,115)" d="M 978.752 976.164 C 982.678 975.856 984.099 975.016 986.894 977.514 C 988.833 982.462 987.792 991.548 987.825 997.378 C 952.481 996.478 960.96 1030.91 961.262 1057.02 L 937.42 1057 C 936.856 1050.75 937.265 1036.48 937.257 1029.73 L 937.064 976.804 C 943.369 976.652 953.076 976.102 958.973 977.026 C 960.853 980.096 958.837 981.026 960.2 985.725 C 964.563 984.679 966.882 979.234 977.547 976.466 L 978.752 976.164 z"/>
<path transform="translate(0,0)" fill="rgb(93,155,226)" d="M 1344 951.914 L 1359.83 951.811 L 1359.9 1043.64 L 1416.76 1043.6 L 1416.9 1056.82 C 1393.15 1057.32 1367.94 1056.91 1344.09 1056.91 L 1344 951.914 z"/>
<path transform="translate(0,0)" fill="rgb(28,46,115)" d="M 524.067 817.334 C 554.751 815.281 572.283 815.508 602.345 822.826 C 602.604 844.19 613.68 848.5 600.954 873.788 C 577.275 854.844 548.91 835.245 524.067 817.334 z"/>
<path transform="translate(0,0)" fill="rgb(28,46,115)" d="M 1790.85 993.017 C 1794.06 992.98 1799.63 992.566 1801.97 994.381 C 1803.43 1001.82 1802.67 1046.88 1802.64 1057 C 1798.78 1057.16 1794.15 1057.77 1791.4 1055.36 C 1789.87 1042.96 1790.83 1007.11 1790.85 993.017 z"/>
<path transform="translate(0,0)" fill="rgb(28,46,115)" d="M 1692.67 1040.65 C 1697.23 1039.41 1701.96 1042.02 1703.33 1046.54 C 1704.71 1051.07 1702.24 1055.87 1697.75 1057.37 C 1694.74 1058.39 1691.41 1057.68 1689.06 1055.53 C 1686.71 1053.38 1685.72 1050.12 1686.47 1047.03 C 1687.22 1043.93 1689.6 1041.49 1692.67 1040.65 z"/>
<path transform="translate(0,0)" fill="rgb(28,46,115)" d="M 1793.84 966.309 C 1798.18 964.701 1802.99 966.934 1804.57 971.284 C 1806.15 975.634 1803.88 980.436 1799.52 981.983 C 1795.2 983.515 1790.46 981.275 1788.9 976.968 C 1787.34 972.661 1789.54 967.901 1793.84 966.309 z"/>
</svg>